<svg xmlns="http://www.w3.org/2000/svg" viewBox="0 0 512 512"><g xmlns="http://www.w3.org/2000/svg" xmlns:bx="https://boxy-svg.com" data-bx-workspace="master" viewBox="0 0 500 500"><defs><bx-grid width="244.734" height="90.424" x="0" y="0"/><radialGradient id="gradient-1" cx="403.023" cy="180.848" r="84.411" gradientTransform="matrix(-0.9337, 1.679797, -0.874051, -0.485833, 937.395978, -408.287005)" gradientUnits="userSpaceOnUse"><stop offset="0" style="stop-color:#ba3030"/><stop offset="1" style="stop-color:#691b1b"/></radialGradient><radialGradient id="gradient-0" cx="350.291" cy="90.424" r="200.359" gradientTransform="matrix(-1.567448, 0.029316, -0.0187, -0.999825, 901.044721, 170.563011)" gradientUnits="userSpaceOnUse"><stop offset="0" style="stop-color:#add0ee"/><stop offset="1" style="stop-color:#599fdd"/></radialGradient><radialGradient id="gradient-2" cx="-42.414" cy="351.44" r="103.608" gradientTransform="matrix(-1.069415, 2.075495, -0.888936, -0.458031, 479.809684, 400.538497)" gradientUnits="userSpaceOnUse"><stop offset="0" style="stop-color:#a7d6ec"/><stop offset="1" style="stop-color:#53afda"/></radialGradient><radialGradient id="gradient-3" cx="192.459" cy="260.4" r="110.651" gradientTransform="matrix(0.484234, 1.451185, -0.948584, 0.316525, 346.274992, -101.316853)" gradientUnits="userSpaceOnUse"><stop offset="0" style="stop-color:#299dd7"/><stop offset="1" style="stop-color:#185f82"/></radialGradient></defs><ellipse style="fill:#d8d8d8;stroke:#000" cx="311.221" cy="390.28" rx="2.309" ry=".494"/><path style="fill:url(#gradient-2)" d="M 275.719 118.417 C 124.809 233.265 122.463 353.279 244.734 473.048 C 141.29 476.847 66.781 399.284 68.533 388.436 C 72.115 366.25 44.521 123.198 275.719 118.417 Z"/><path style="fill:url(#gradient-0)" d="M 421.514 132.157 C 110.684 36.895 42.956 239.152 57.421 378.634 C -92.275 114.494 254.487 -92.85 421.514 132.157"/><path style="fill:url(#gradient-3)" d="M 394.533 404.98 C 233.311 391.38 186.32 282.602 197.423 221.427 C 130.671 335.703 229.064 437.76 266.355 470.396 C 354.443 461.256 405.795 398.988 394.533 404.98 Z"/><path style="fill:url(#gradient-1)" d="M 412.211 191.684 C 422.249 157.572 387.847 159.398 390.164 188.483 C 356.541 176.014 312.682 186.721 326.825 199.706 C 337.079 209.121 397.655 182.889 398.148 239.109 C 323.987 249.971 348.018 234.058 336.165 294.261 C 236.319 284.633 316.828 349.985 345.721 331.367 C 334.828 297.863 340.471 307.495 355.959 303.122 C 336.867 228.143 432.394 318.193 435.577 236.038 C 436.55 258.856 442.943 324.69 453.456 292.6 C 464.072 252.68 445.577 206.694 412.211 191.684 Z"/></g></svg>